<?xml version="1.0" encoding="utf-8"?>
<!-- Generator: Adobe Illustrator 16.0.0, SVG Export Plug-In . SVG Version: 6.00 Build 0)  -->
<!DOCTYPE svg PUBLIC "-//W3C//DTD SVG 1.1//EN" "http://www.w3.org/Graphics/SVG/1.1/DTD/svg11.dtd">
<svg version="1.1" id="Layer_1" xmlns="http://www.w3.org/2000/svg" xmlns:xlink="http://www.w3.org/1999/xlink" x="0px" y="0px"
	 width="300px" height="300px" viewBox="0 0 300 300" enable-background="new 0 0 300 300" xml:space="preserve">
<g>
	<rect y="3" fill="none" width="300" height="300"/>
	<path fill="#FFFFFF" d="M218.6,98.6l-5,50.9h-40.9V298h-61V149.5H80.8V98.6h30.8V67.8c0-21.8,5-38.4,15.1-49.7
		c10.5-10.9,27.5-16.4,50.9-16.4h40.9v50.9h-25.8c-4.6,0-8.4,0.4-11.3,1.3c-2.5,0.8-4.4,2.1-5.7,3.8c-1.3,2.1-2.1,4.2-2.5,6.3
		c-0.4,2.1-0.6,5-0.6,8.8v25.8H218.6z"/>
</g>
<g>
</g>
<g>
</g>
<g>
</g>
<g>
</g>
<g>
</g>
<g>
</g>
</svg>
