<?xml version="1.0" encoding="utf-8"?>
<!-- Generator: Adobe Illustrator 16.0.0, SVG Export Plug-In . SVG Version: 6.00 Build 0)  -->
<!DOCTYPE svg PUBLIC "-//W3C//DTD SVG 1.1//EN" "http://www.w3.org/Graphics/SVG/1.1/DTD/svg11.dtd">
<svg version="1.1" id="Layer_1" xmlns="http://www.w3.org/2000/svg" xmlns:xlink="http://www.w3.org/1999/xlink" x="0px" y="0px"
	 width="300px" height="300px" viewBox="0 0 300 300" enable-background="new 0 0 300 300" xml:space="preserve">
<g>
	<rect y="3" fill="none" width="300" height="300"/>
	<path fill="#FFFFFF" d="M276.1,267.1c0.4,2.9-0.6,5.9-3.1,8.8c-2.1,1.7-4.8,2.7-8.2,3.1l-25.8-0.6c-2.9,0.4-5.7-0.6-8.2-3.1
		c-2.1-1.7-3.1-4.2-3.1-7.5c-1.7-25.2-7.8-49.5-18.2-73c-10.5-23.1-24.3-43.2-41.5-60.4c-17.2-16.8-37.3-30.8-60.4-42.1
		C84.5,82.2,60,76.2,34,74.1c-2.9,0.4-5.5-0.6-7.5-3.1c-2.1-2.1-3.1-4.8-3.1-8.2V37.6c0-3.8,1.3-6.5,3.8-8.2
		c2.1-2.5,4.6-3.6,7.5-3.1l0.6-0.6c31.4,2.1,61.4,9.2,89.9,21.4c28.9,13.4,54.5,31,76.7,52.8c22.2,23.1,39.8,48.6,52.8,76.7
		c13,28.9,20.1,58.9,21.4,89.9V267.1z M184.3,267.1c0.4,2.9-0.6,5.7-3.1,8.2c-2.1,2.1-4.8,3.4-8.2,3.8l-24.5-0.6
		c-2.9,0.4-5.5-0.4-7.5-2.5c-2.1-1.7-3.4-4.2-3.8-7.5c-2.5-27.2-13.6-50.7-33.3-70.4c-19.3-18.9-42.6-30-69.8-33.3
		c-3.4,0.4-5.9-0.6-7.5-3.1c-2.1-2.1-3.1-4.8-3.1-8.2V130c0-4.2,1.3-7.1,3.8-8.8c2.1-2.5,4.6-3.6,7.5-3.1l1.3-0.6
		c18.9,2.1,37.1,6.9,54.7,14.5c17.6,8.8,33.1,19.7,46.5,32.7c13.8,14.3,24.7,29.8,32.7,46.5c8,18,12.8,36.5,14.5,55.3V267.1z
		 M82.4,268.4c-6.7,7.1-14.9,10.5-24.5,10.1c-9.6,0.4-17.8-2.9-24.5-10.1c-6.7-6.3-10.1-14.2-10.1-23.9c0-9.2,3.4-17.4,10.1-24.5
		c6.7-6.3,14.9-9.6,24.5-10.1c9.6,0.4,17.8,3.8,24.5,10.1c6.7,7.1,10.1,15.3,10.1,24.5C92.5,254.1,89.1,262.1,82.4,268.4z"/>
</g>
<g>
</g>
<g>
</g>
<g>
</g>
<g>
</g>
<g>
</g>
<g>
</g>
</svg>
