<?xml version="1.0" encoding="utf-8"?>
<!-- Generator: Adobe Illustrator 16.0.0, SVG Export Plug-In . SVG Version: 6.00 Build 0)  -->
<!DOCTYPE svg PUBLIC "-//W3C//DTD SVG 1.1//EN" "http://www.w3.org/Graphics/SVG/1.1/DTD/svg11.dtd">
<svg version="1.1" id="Layer_1" xmlns="http://www.w3.org/2000/svg" xmlns:xlink="http://www.w3.org/1999/xlink" x="0px" y="0px"
	 width="810px" height="200px" viewBox="0 0 810 200" enable-background="new 0 0 810 200" xml:space="preserve">
<polygon fill="#37C2F2" points="16.1,32.7 33.9,62.4 3.7,92.1 56.2,92.1 61.8,80.2 31.9,80.2 49.9,62 38.9,44.5 88.3,44.5 
	45.4,146.3 60.1,146.3 108.2,32.7 "/>
<rect x="668.3" y="102.3" fill="#FFFFFF" width="12.3" height="65"/>
<rect x="667.7" y="80.3" fill="#FFFFFF" width="13.4" height="13.2"/>
<polygon fill="#FFFFFF" points="647.3,80.3 632.1,147.9 631.5,147.9 615.7,102.3 604.8,102.3 586.7,147.9 586.2,147.9 574.1,80.3 
	560.9,80.3 577.5,167.3 589.7,167.3 609.2,119.1 609.8,119.1 626.7,167.3 638.9,167.3 659.9,80.3 "/>
<g>
	<g>
		<defs>
			<rect id="SVGID_1_" x="-110" y="-81" width="1032.6" height="363.2"/>
		</defs>
		<clipPath id="SVGID_2_">
			<use xlink:href="#SVGID_1_"  overflow="visible"/>
		</clipPath>
		<path clip-path="url(#SVGID_2_)" fill="#FFFFFF" d="M476.8,157.7c-11.9,0-20.1-9.3-20.1-22.9c0-12.6,7.1-23.4,18.6-23.4
			c13.2,0,16.7,11,17.1,17.8h-21.2l-4.3,9.9h37.9c0.2-2.6,0.2-3.3,0.2-4.6c0-18.7-9.5-33.5-29.9-33.5c-17.6,0-31.2,14.3-31.2,33.9
			c0,20.1,13,33.5,31.6,33.5c11.1,0,21-4,26.9-11.2l-7.4-7.1C490.2,155,483.9,157.7,476.8,157.7"/>
	</g>
	<g>
		<defs>
			<rect id="SVGID_3_" x="-110" y="-81" width="1032.6" height="363.2"/>
		</defs>
		<clipPath id="SVGID_4_">
			<use xlink:href="#SVGID_3_"  overflow="visible"/>
		</clipPath>
		<path clip-path="url(#SVGID_4_)" fill="#FFFFFF" d="M428.3,101c0-8.1,3.9-12.6,11.3-12.6c2.8,0,7.2,0.7,10.8,2l3.9-9
			c-4.8-2.4-10.6-3.3-15-3.3c-12.4,0-23.2,6.2-23.2,22.9v2h-8.2v10.3h8.2v54h12.3v-54h12.4l4.3-10.3h-16.7v-2H428.3z"/>
	</g>
	<g>
		<defs>
			<rect id="SVGID_5_" x="-110" y="-81" width="1032.6" height="363.2"/>
		</defs>
		<clipPath id="SVGID_6_">
			<use xlink:href="#SVGID_5_"  overflow="visible"/>
		</clipPath>
		<path clip-path="url(#SVGID_6_)" fill="#FFFFFF" d="M317.9,101c-8.2,0-15.6,3.1-19.3,9.5H298v-8.2h-11.9v65h12.3v-35.1
			c0-12.8,6.5-20.5,16.7-20.5c9.7,0,15.4,5.1,15.4,17v38.6h12.3v-40.8C342.7,110,333.1,101,317.9,101"/>
	</g>
	<g>
		<defs>
			<rect id="SVGID_7_" x="-110" y="-81" width="1032.6" height="363.2"/>
		</defs>
		<clipPath id="SVGID_8_">
			<use xlink:href="#SVGID_7_"  overflow="visible"/>
		</clipPath>
		<path clip-path="url(#SVGID_8_)" fill="#FFFFFF" d="M259.7,142.2c0,9.7-8,15.9-19.1,15.9c-6.7,0-12.4-3.1-12.4-10.8
			c0-7.1,5.9-11.9,15-11.9c8.2,0,13.6,1.5,16.5,3.7V142.2z M242.5,101c-7.2,0-14.1,1.1-19.3,3.1l2,9.9c5.9-1.8,10.8-2.6,15.6-2.6
			c10.4,0,18.9,4.8,18.9,15.4v1.8c-3.3-1.3-8.5-2.9-16.2-2.9c-16.7,0-27.7,8.4-27.7,22.2c0,14.3,10.8,20.7,22.8,20.7
			c10,0,16.9-4,20.4-8.8h0.6v7.5h11.9v-40.6C271.6,108.9,260.1,101,242.5,101"/>
	</g>
	<g>
		<defs>
			<rect id="SVGID_9_" x="-110" y="-81" width="1032.6" height="363.2"/>
		</defs>
		<clipPath id="SVGID_10_">
			<use xlink:href="#SVGID_9_"  overflow="visible"/>
		</clipPath>
		<polygon clip-path="url(#SVGID_10_)" fill="#FFFFFF" points="108.2,80.3 108.2,92 135.7,92 135.7,167.3 148.7,167.3 148.7,92 
			176.2,92 176.2,80.3 		"/>
	</g>
	<g>
		<defs>
			<rect id="SVGID_11_" x="-110" y="-81" width="1032.6" height="363.2"/>
		</defs>
		<clipPath id="SVGID_12_">
			<use xlink:href="#SVGID_11_"  overflow="visible"/>
		</clipPath>
		<path clip-path="url(#SVGID_12_)" fill="#FFFFFF" d="M216.5,103.6c-3.9-1.6-8.2-1.8-10.6-1.8c-6.9,0-13.6,2.7-17.1,7.7h-0.6v-7.1
			h-11.9v65h12.3v-35.5c0-13.7,6.7-19.2,16.5-19.2c3.3,0,5.6,0.4,8.5,1.1L216.5,103.6z"/>
	</g>
	<g>
		<defs>
			<rect id="SVGID_13_" x="-110" y="-81" width="1032.6" height="363.2"/>
		</defs>
		<clipPath id="SVGID_14_">
			<use xlink:href="#SVGID_13_"  overflow="visible"/>
		</clipPath>
		<path clip-path="url(#SVGID_14_)" fill="#FFFFFF" d="M557.6,103.7c-3.9-1.6-8.2-2-10.6-2c-6.9,0-14.3,2.7-17.8,7.7h-0.6v-7.1
			h-11.9v65H529v-35.5c0-13.7,7.4-19.2,17.3-19.2c3.3,0,5.6,0.4,8.5,1.1L557.6,103.7z"/>
	</g>
	<g>
		<defs>
			<rect id="SVGID_15_" x="-110" y="-81" width="1032.6" height="363.2"/>
		</defs>
		<clipPath id="SVGID_16_">
			<use xlink:href="#SVGID_15_"  overflow="visible"/>
		</clipPath>
		<path clip-path="url(#SVGID_16_)" fill="#FFFFFF" d="M780.9,157.7c-11.9,0-20.1-9.3-20.1-22.9c0-12.6,7.1-23.4,18.6-23.4
			c13.2,0,16.7,11,17.1,17.8h-21.2l-4.3,9.9h38c0.2-2.6,0.2-3.3,0.2-4.6c0-18.7-9.5-33.5-29.9-33.5c-17.6,0-31.2,14.3-31.2,33.9
			c0,20.1,13,33.5,31.6,33.5c11.1,0,21-4,26.9-11.2l-7.4-7.1C794.3,155,788,157.7,780.9,157.7"/>
	</g>
	<g>
		<defs>
			<rect id="SVGID_17_" x="-110" y="-81" width="1032.6" height="363.2"/>
		</defs>
		<clipPath id="SVGID_18_">
			<use xlink:href="#SVGID_17_"  overflow="visible"/>
		</clipPath>
		<path clip-path="url(#SVGID_18_)" fill="#FFFFFF" d="M380.3,129.7c-9.5-1.3-15-3.1-15-9.3c0-5.7,5.6-9.2,12.4-9.2
			c5.6,0,12.6,2.2,17.1,5.5l5.9-8.8c-5.6-4.6-14.5-7-22.8-7c-14.3,0-24.9,8.6-24.9,20c0,13,8.4,17.2,22.5,19.4
			c8,1.3,14.9,2.2,14.9,9c0,5.7-5.6,8.8-13,8.8c-7.2,0-13.7-2-20.1-7l-5.4,9.7c4.6,4.2,14.3,7.5,25.1,7.5c14.9,0,25.6-8.6,25.6-20.1
			C402.5,134.3,391.4,131.2,380.3,129.7"/>
	</g>
	<g>
		<defs>
			<rect id="SVGID_19_" x="-110" y="-81" width="1032.6" height="363.2"/>
		</defs>
		<clipPath id="SVGID_20_">
			<use xlink:href="#SVGID_19_"  overflow="visible"/>
		</clipPath>
		<path clip-path="url(#SVGID_20_)" fill="#FFFFFF" d="M719.4,129.8c-9.5-1.3-15-3.1-15-9.3c0-5.7,5.6-9.2,12.4-9.2
			c5.6,0,12.6,2.2,17.1,5.5l5.9-8.8c-5.6-4.6-14.5-7-22.8-7c-14.3,0-24.9,8.6-24.9,20c0,13,8.4,17.2,22.5,19.4
			c8,1.3,14.9,2.2,14.9,9c0,5.7-5.6,8.8-13,8.8c-7.2,0-13.7-2-20.1-7l-5.4,9.7c4.6,4.2,14.3,7.5,25.1,7.5c14.9,0,25.6-8.6,25.6-20.1
			C741.7,134.3,730.5,131.2,719.4,129.8"/>
	</g>
</g>
<g>
</g>
<g>
</g>
<g>
</g>
<g>
</g>
<g>
</g>
<g>
</g>
</svg>
