<?xml version="1.0" encoding="utf-8"?>
<!-- Generator: Adobe Illustrator 16.0.0, SVG Export Plug-In . SVG Version: 6.00 Build 0)  -->
<!DOCTYPE svg PUBLIC "-//W3C//DTD SVG 1.1//EN" "http://www.w3.org/Graphics/SVG/1.1/DTD/svg11.dtd">
<svg version="1.1" id="Layer_1" xmlns="http://www.w3.org/2000/svg" xmlns:xlink="http://www.w3.org/1999/xlink" x="0px" y="0px"
	 width="300px" height="300px" viewBox="0 0 300 300" enable-background="new 0 0 300 300" xml:space="preserve">
<g>
	<rect fill="none" width="300" height="300"/>
	<path fill="#FFFFFF" d="M262.6,98.7c0,1.7,0,4.2,0,7.5c0,15.9-2.3,31.7-6.9,47.2c-4.6,15.5-11.5,30.4-20.8,44.7
		c-9.2,14.3-20.3,26.8-33.3,37.7c-12.6,10.9-27.9,19.5-45.9,25.8c-18.5,6.7-38,10.1-58.5,10.1c-32.3,0-61.8-8.6-88.7-25.8
		c4.2,0.4,8.8,0.6,13.8,0.6c26.8,0,50.7-8.4,71.7-25.2c-12.6,0-23.7-3.8-33.3-11.3c-10.1-7.5-17-17.2-20.8-28.9
		c4.2,0.8,8,1.3,11.3,1.3c5,0,10.1-0.6,15.1-1.9c-13.4-2.9-24.5-9.6-33.3-20.1c-8.8-10.9-13.2-23.3-13.2-37.1v-0.6
		c8,4.6,16.8,7.1,26.4,7.5c-8-5.4-14.3-12.4-18.9-20.8c-5-8.8-7.5-18-7.5-27.7c0-10.5,2.7-20.3,8.2-29.6
		c14.7,18,32.3,32.3,52.8,42.8c21,10.9,43.2,17,66.7,18.2c-0.8-4.6-1.3-9-1.3-13.2c0-16.4,5.7-30.2,17-41.5s24.9-17,40.9-17
		c16.8,0,31,6.1,42.8,18.2c13-2.5,25.2-7.1,36.5-13.8c-4.2,13.8-12.6,24.5-25.2,32.1c10.9-1.3,22-4.2,33.3-8.8
		C283.5,80.9,273.9,90.8,262.6,98.7z"/>
</g>
<g>
</g>
<g>
</g>
<g>
</g>
<g>
</g>
<g>
</g>
<g>
</g>
</svg>
